<svg width="104" height="69" viewBox="0 0 104 69" fill="none" xmlns="http://www.w3.org/2000/svg">
<path d="M76 16.88L100.3 28.39C100.545 28.5048 100.754 28.6857 100.903 28.9123C101.051 29.139 101.134 29.4025 101.141 29.6734C101.148 29.9443 101.08 30.2119 100.944 30.4461C100.808 30.6804 100.609 30.8722 100.37 31L78.74 42.65C78.5166 42.7688 78.2664 42.8279 78.0134 42.8216C77.7605 42.8153 77.5135 42.7438 77.2963 42.6141C77.0791 42.4844 76.899 42.3008 76.7735 42.0811C76.648 41.8614 76.5814 41.613 76.58 41.36V37.92C76.58 37.5301 76.4251 37.1562 76.1495 36.8806C75.8738 36.6049 75.4999 36.45 75.11 36.45H67.57C67.1845 36.45 66.8147 36.2976 66.5412 36.0259C66.2676 35.7543 66.1127 35.3855 66.11 35V26.25C66.1087 26.0574 66.1455 25.8665 66.2183 25.6882C66.2911 25.5099 66.3984 25.3478 66.5341 25.2112C66.6698 25.0745 66.8312 24.9661 67.009 24.8921C67.1868 24.8181 67.3774 24.78 67.57 24.78H74.48C74.8415 24.7817 75.1906 24.6483 75.4588 24.406C75.7271 24.1636 75.8951 23.8298 75.93 23.47C76.1369 21.2791 76.1603 19.0748 76 16.88Z" fill="#1C91FF"/>
<path d="M59.93 47.24L56.28 49C54.8075 49.6251 53.2209 49.9364 51.6213 49.914C50.0218 49.8916 48.4445 49.5361 46.99 48.87L3.92004 26.3C1.79004 25.18 2.04004 23.39 4.46004 22.3L47.4 2.91002C50.0123 1.88902 52.9082 1.86056 55.54 2.83002L62 5.62002" stroke="#1C2740" stroke-width="4.25" stroke-miterlimit="10" stroke-linecap="round"/>
<path d="M81.18 37.42L81.12 48.8C81.1124 50.1993 80.7044 51.5672 79.9441 52.7421C79.1839 53.9169 78.1033 54.8496 76.83 55.43L55 65.35C54.0376 65.7946 52.9901 66.0249 51.93 66.0249C50.8699 66.0249 49.8224 65.7946 48.86 65.35L27.19 55.16C25.9277 54.5643 24.8623 53.6196 24.1198 52.4376C23.3773 51.2556 22.9887 49.8858 23 48.49V37.42" stroke="#1C2740" stroke-width="4.25" stroke-miterlimit="10"/>
<path d="M61.76 24.86V29.59C61.76 30.1869 61.995 30.7598 62.4142 31.1846C62.8335 31.6095 63.4032 31.8521 64 31.86H72.33C72.6919 31.8602 73.0487 31.9457 73.3714 32.1097C73.694 32.2737 73.9734 32.5116 74.1868 32.8039C74.4002 33.0962 74.5416 33.4348 74.5995 33.7921C74.6574 34.1494 74.6302 34.5153 74.52 34.86L72.52 40.99L100.77 26.46C101.031 26.3282 101.25 26.1266 101.403 25.8776C101.556 25.6287 101.637 25.3422 101.637 25.05C101.637 24.7578 101.556 24.4713 101.403 24.2224C101.25 23.9735 101.031 23.7719 100.77 23.64L72.89 10.14L75 16C75.1234 16.3472 75.1615 16.719 75.1112 17.084C75.0609 17.4491 74.9236 17.7967 74.7109 18.0976C74.4982 18.3985 74.2163 18.6439 73.889 18.8131C73.5617 18.9823 73.1985 19.0704 72.83 19.07H67.15" stroke="#1C2740" stroke-width="4.25" stroke-linecap="round" stroke-linejoin="round"/>
</svg>
